<?xml version="1.0" encoding="UTF-8"?>
<svg id="Layer_1" xmlns="http://www.w3.org/2000/svg" version="1.1" viewBox="0 0 384 384">
  <!-- Generator: Adobe Illustrator 29.3.1, SVG Export Plug-In . SVG Version: 2.1.0 Build 151)  -->
  <defs>
    <style>
      .st0 {
        fill: #fff;
      }

      .st1 {
        fill: #231f20;
        stroke: #000;
        stroke-miterlimit: 10;
      }
    </style>
  </defs>
  <polygon class="st1" points="359 0 26 0 26 352 58.52 352 58.55 382.49 74.54 372.65 90.21 382.49 90.2 352 359 352 359 0"/>
  <g>
    <path class="st0" d="M96.27,116.89c3.75-.63,9.03-1.13,16.46-1.13s12.89,1.46,16.5,4.35c3.45,2.68,5.72,7.18,5.72,12.47s-1.71,9.79-4.92,12.77c-4.17,3.91-10.38,5.72-17.51,5.72-1.62,0-3.06-.11-4.16-.28v19.31h-12.08v-53.21ZM108.35,141.35c1.01.23,2.27.32,4.05.32,6.47,0,10.47-3.28,10.47-8.74,0-4.96-3.4-7.92-9.54-7.92-2.41,0-4.09.2-4.98.4v15.93Z"/>
    <path class="st0" d="M188.7,142.6c0,17.69-10.68,28.38-26.44,28.38s-25.4-12.1-25.4-27.47,10.37-28.21,26.25-28.21,25.59,12.38,25.59,27.3ZM149.75,143.27c0,10.56,4.98,18.01,13.11,18.01s12.95-7.79,12.95-18.27c0-9.72-4.6-18.02-12.98-18.02s-13.08,7.8-13.08,18.28Z"/>
    <path class="st0" d="M193.38,116.92c3.92-.66,9.72-1.16,16.2-1.16,8,0,13.6,1.22,17.45,4.27,3.22,2.56,4.99,6.34,4.99,11.3,0,6.83-4.88,11.59-9.52,13.25v.25c3.74,1.51,5.85,5.09,7.21,10.04,1.67,6.1,3.29,13.13,4.35,15.22h-12.48c-.83-1.56-2.17-5.89-3.71-12.57-1.5-6.74-3.77-8.54-8.78-8.6h-3.63v21.17h-12.08v-53.18ZM205.47,140.11h4.78c6.05,0,9.67-3.08,9.67-7.77,0-4.94-3.38-7.46-8.95-7.49-2.92,0-4.63.19-5.49.41v14.85Z"/>
    <path class="st0" d="M247.95,126.41h-14.55v-10.23h41.5v10.23h-14.76v43.69h-12.19v-43.69Z"/>
    <path class="st0" d="M96.27,176.18h32.93v9.99h-20.74v12.36h19.4v9.89h-19.4v21.68h-12.19v-53.92Z"/>
    <path class="st0" d="M184.38,202.6c0,17.69-10.68,28.38-26.44,28.38s-25.4-12.1-25.4-27.47,10.37-28.21,26.25-28.21,25.59,12.38,25.59,27.3ZM145.43,203.27c0,10.56,4.98,18.01,13.11,18.01s12.95-7.79,12.95-18.27c0-9.72-4.6-18.02-12.98-18.02s-13.08,7.8-13.08,18.28Z"/>
    <path class="st0" d="M189.07,176.18h12.19v43.7h21.45v10.22h-33.64v-53.92Z"/>
    <path class="st0" d="M238.78,176.18v53.92h-12.19v-53.92h12.19Z"/>
    <path class="st0" d="M295.34,202.6c0,17.69-10.68,28.38-26.44,28.38s-25.4-12.1-25.4-27.47,10.37-28.21,26.25-28.21,25.59,12.38,25.59,27.3ZM256.39,203.27c0,10.56,4.98,18.01,13.11,18.01s12.95-7.79,12.95-18.27c0-9.72-4.6-18.02-12.98-18.02s-13.08,7.8-13.08,18.28Z"/>
  </g>
</svg>